<?xml version="1.0" standalone="no"?>
<!DOCTYPE svg PUBLIC "-//W3C//DTD SVG 20010904//EN"
 "http://www.w3.org/TR/2001/REC-SVG-20010904/DTD/svg10.dtd">
<svg version="1.0" xmlns="http://www.w3.org/2000/svg"
 width="96.000000pt" height="96.000000pt" viewBox="0 0 96.000000 96.000000"
 preserveAspectRatio="xMidYMid meet">
<metadata>
Created by potrace 1.14, written by Peter Selinger 2001-2017
</metadata>
<g transform="translate(0.000000,96.000000) scale(0.100000,-0.100000)"
fill="#000000" stroke="none">
<path d="M765 814 c-20 -53 -26 -57 -61 -44 -20 8 -42 8 -79 -1 -27 -7 -56
-12 -63 -12 -7 0 -10 -7 -7 -15 3 -8 -1 -22 -8 -31 -17 -20 -47 -76 -86 -164
-56 -124 -125 -206 -249 -294 -78 -56 -90 -75 -63 -102 16 -16 31 -19 73 -16
221 13 505 218 574 413 7 21 18 36 25 34 7 -2 9 3 4 15 -4 10 -9 32 -12 48 -2
17 -13 45 -23 62 -19 32 -19 34 0 75 23 51 24 64 6 71 -9 4 -19 -9 -31 -39z"/>
</g>
</svg>
